<?xml version="1.0" encoding="UTF-8"?>
<svg version="1.1" xmlns="http://www.w3.org/2000/svg" width="512" height="512">
<path d="M0 0 C1.35762451 0.80111206 1.35762451 0.80111206 2.74267578 1.6184082 C3.77279785 2.21983643 4.80291992 2.82126465 5.86425781 3.44091797 C6.96108887 4.09374756 8.05791992 4.74657715 9.18798828 5.41918945 C10.34876169 6.10098743 11.51006636 6.78188165 12.671875 7.46191406 C15.0596212 8.86124296 17.44434823 10.26551222 19.82666016 11.67407227 C24.03733751 14.16230543 28.26499832 16.62111225 32.49267578 19.08032227 C38.42420976 22.53186143 44.34712737 25.99817801 50.27197266 29.46118164 C61.60151719 36.08190757 72.94275431 42.68104172 84.31298828 49.23168945 C97.66308006 56.92297784 110.9703187 64.68651855 124.27197266 72.46118164 C127.24364334 74.19775782 130.21567347 75.933716 133.18798828 77.66918945 C134.17154297 78.2434668 135.15509766 78.81774414 136.16845703 79.40942383 C142.47972239 83.09031136 148.80368306 86.74849797 155.13598633 90.39306641 C159.46360072 92.88468439 163.78734349 95.38296854 168.11035156 97.88256836 C170.26599249 99.12718068 172.42325241 100.36899267 174.58203125 101.6081543 C177.68487592 103.39079936 180.78085099 105.18484435 183.87548828 106.98168945 C184.81602051 107.51866455 185.75655273 108.05563965 186.72558594 108.60888672 C187.58071777 109.10831787 188.43584961 109.60774902 189.31689453 110.12231445 C190.067854 110.55576172 190.81881348 110.98920898 191.5925293 111.43579102 C193.31298828 112.73168945 193.31298828 112.73168945 194.31298828 115.73168945 C193.68134766 116.08247559 193.04970703 116.43326172 192.39892578 116.79467773 C178.64596693 124.44154084 164.97929777 132.21258984 151.40283203 140.16918945 C145.09728409 143.86382256 138.77004392 147.52021627 132.43798828 151.16918945 C130.81775757 152.10299438 130.81775757 152.10299438 129.16479492 153.05566406 C126.97502494 154.31745772 124.78516473 155.57909479 122.59521484 156.84057617 C117.1663889 159.96849091 111.73976821 163.10022676 106.31298828 166.23168945 C99.79065553 169.99532865 93.26785066 173.75813567 86.74267578 177.5168457 C76.29092672 183.53916249 65.84995689 189.57832183 55.43798828 195.66918945 C45.43061238 201.52287488 35.37736332 207.29335162 25.29370117 213.0144043 C20.13453873 215.94560077 14.99517675 218.89628402 9.93798828 222.0012207 C9.15351318 222.47978516 8.36903809 222.95834961 7.56079102 223.45141602 C6.15652817 224.31427443 4.75945874 225.18901282 3.37182617 226.07836914 C-1.06153044 228.7969758 -1.06153044 228.7969758 -4.09619141 228.48022461 C-6.79998284 227.69905004 -8.9240051 226.68203795 -11.36279297 225.2824707 C-12.26054443 224.77143799 -13.1582959 224.26040527 -14.08325195 223.73388672 C-15.04561768 223.17628662 -16.0079834 222.61868652 -16.99951172 222.04418945 C-18.01279541 221.46403076 -19.0260791 220.88387207 -20.07006836 220.28613281 C-23.28094108 218.44354516 -26.48496119 216.58956108 -29.68701172 214.73168945 C-31.18989746 213.86060547 -31.18989746 213.86060547 -32.72314453 212.97192383 C-38.71704658 209.49337272 -44.70034125 205.99690874 -50.6796875 202.4934082 C-55.63770923 199.58895255 -60.59939276 196.6907817 -65.56201172 193.79418945 C-66.5467749 193.21934814 -67.53153809 192.64450684 -68.54614258 192.05224609 C-75.91340242 187.75602322 -83.297262 183.48909061 -90.68701172 179.23168945 C-104.0371035 171.54040107 -117.34434214 163.77686035 -130.64599609 156.00219727 C-141.97554111 149.38147106 -153.31681356 142.7824 -164.68701172 136.23168945 C-173.51110565 131.14734007 -182.32520956 126.04634189 -191.12451172 120.91918945 C-192.65301758 120.02973633 -192.65301758 120.02973633 -194.21240234 119.12231445 C-195.15148437 118.57446289 -196.09056641 118.02661133 -197.05810547 117.4621582 C-198.29451782 116.74129028 -198.29451782 116.74129028 -199.5559082 116.00585938 C-201.29730456 114.96469228 -202.9988536 113.8571282 -204.68701172 112.73168945 C-204.68701172 112.07168945 -204.68701172 111.41168945 -204.68701172 110.73168945 C-203.83042969 110.25094971 -203.83042969 110.25094971 -202.95654297 109.76049805 C-190.8732689 102.97206089 -178.84140524 96.10480038 -166.87988281 89.10400391 C-156.27054383 82.89572142 -145.62072669 76.75840171 -134.96923828 70.62280273 C-129.5404123 67.49488797 -124.11381891 64.36310497 -118.68701172 61.23168945 C-116.52035589 59.98167066 -114.35368922 58.73167067 -112.18701172 57.48168945 C-111.11451172 56.86293945 -110.04201172 56.24418945 -108.93701172 55.60668945 C-73.18701172 34.98168945 -73.18701172 34.98168945 -69.93530273 33.10571289 C-67.77432184 31.8589869 -65.61335174 30.61224218 -63.45239258 29.36547852 C-57.94882321 26.19023062 -52.44505139 23.0153345 -46.94091797 19.84106445 C-45.27561035 18.88006836 -45.27561035 18.88006836 -43.57666016 17.8996582 C-41.3819351 16.6344865 -39.18599605 15.37141811 -36.98876953 14.1105957 C-31.9733629 11.22884904 -26.98194251 8.32016789 -22.04248047 5.30981445 C-20.74105103 4.52622559 -20.74105103 4.52622559 -19.41333008 3.72680664 C-17.81578172 2.76226103 -16.22602908 1.78462587 -14.64624023 0.79125977 C-13.94297607 0.36941406 -13.23971191 -0.05243164 -12.51513672 -0.48706055 C-11.61649902 -1.04296875 -11.61649902 -1.04296875 -10.69970703 -1.61010742 C-6.83606279 -2.87361844 -3.56366892 -1.68210613 0 0 Z " fill="#000000" transform="translate(260.68701171875,2.268310546875)"/>
<path d="M0 0 C0.33078131 6.83049276 0.55770383 13.65891346 0.71411133 20.49560547 C0.77932368 22.81833029 0.86792541 25.14052462 0.98071289 27.46142578 C1.88998439 46.65898607 1.88998439 46.65898607 -2.48803711 52.08178711 C-5.90776826 54.20220088 -9.23315504 55.59751243 -13 57 C-15.18196566 58.21287172 -17.34282902 59.46451558 -19.48046875 60.75390625 C-21.71499702 62.02545846 -23.95071386 63.29492382 -26.1875 64.5625 C-28.65817597 65.96765477 -31.12788106 67.37451273 -33.59765625 68.78125 C-34.21775574 69.13417618 -34.83785522 69.48710236 -35.47674561 69.85072327 C-41.70638085 73.39784056 -47.9175022 76.97679664 -54.125 80.5625 C-55.18871826 81.17681885 -56.25243652 81.7911377 -57.34838867 82.42407227 C-59.49309587 83.66292223 -61.6377088 84.90193541 -63.78222656 86.14111328 C-68.10404947 88.63780217 -72.42732363 91.13197013 -76.75097656 93.62548828 C-78.9018878 94.86644834 -81.05228617 96.10829779 -83.20214844 97.35107422 C-88.27249488 100.28089891 -93.34725255 103.20213528 -98.43914795 106.09432983 C-100.84149946 107.45953665 -103.24115891 108.82943671 -105.640625 110.19970703 C-107.33333218 111.16376858 -109.02990354 112.12103533 -110.7265625 113.078125 C-111.75265625 113.66464844 -112.77875 114.25117188 -113.8359375 114.85546875 C-114.73876465 115.36746826 -115.6415918 115.87946777 -116.57177734 116.40698242 C-119.72163275 118.47342185 -122.2999718 120.5999436 -124 124 C-124.12374456 127.00380556 -124.18846049 129.98346439 -124.203125 132.98828125 C-124.20882507 133.88363083 -124.21452515 134.77898041 -124.22039795 135.70146179 C-124.2298539 137.59873267 -124.23638429 139.49602001 -124.24023438 141.39331055 C-124.24992639 144.2904953 -124.28093831 147.18696662 -124.3125 150.08398438 C-124.31903143 151.92707912 -124.32428135 153.77017894 -124.328125 155.61328125 C-124.3466452 156.91039787 -124.3466452 156.91039787 -124.36553955 158.23371887 C-124.34806997 162.97216677 -124.11309018 166.16642745 -121 170 C-117.63085486 171.68457257 -114.61906833 171.66184476 -111 171 C-106.48768125 169.06301202 -102.29208155 166.60547905 -98.0625 164.125 C-96.8439906 163.42696909 -95.62466227 162.73036588 -94.40454102 162.03515625 C-90.92353511 160.04501507 -87.46059084 158.02542942 -84 156 C-83.17725586 155.52143555 -82.35451172 155.04287109 -81.50683594 154.54980469 C-78.14821273 152.59533431 -74.80069685 150.6232302 -71.4609375 148.63671875 C-65.85754196 145.31124222 -60.20844066 142.06503021 -54.5625 138.8125 C-53.46381592 138.17948975 -52.36513184 137.54647949 -51.2331543 136.89428711 C-48.97144984 135.591468 -46.70964843 134.28881721 -44.44775391 132.98632812 C-40.97840336 130.98755769 -37.51037296 128.98651894 -34.04296875 126.984375 C-28.6270766 123.85718133 -23.20990005 120.73222801 -17.79150391 117.609375 C-16.03557631 116.59703682 -14.27999201 115.5841027 -12.52490234 114.5703125 C-10.49691304 113.39903887 -8.46750876 112.23026876 -6.4375 111.0625 C-5.38433594 110.45535156 -4.33117187 109.84820312 -3.24609375 109.22265625 C-1 108 -1 108 0 108 C0.34086887 128.23568051 0.62996421 148.47146937 0.85746098 168.70874977 C0.96429943 178.10535621 1.08806283 187.50116971 1.25170898 196.89697266 C1.39430331 205.08654503 1.50510358 213.27582558 1.5777635 221.46632802 C1.61734793 225.80334401 1.67281953 230.13884027 1.76637459 234.47505569 C1.85396042 238.55788938 1.89897252 242.63899637 1.91156769 246.72272873 C1.92365028 248.22009925 1.9511977 249.71743834 1.99547386 251.21420288 C2.31685553 262.51374903 2.31685553 262.51374903 -0.92704964 266.1749382 C-3.23206908 267.74214322 -5.44722701 268.89290722 -8 270 C-9.33134185 270.74787545 -10.65693129 271.50622959 -11.97265625 272.28125 C-13.3342937 273.02385536 -14.6976542 273.76330793 -16.0625 274.5 C-23.27501158 278.45177903 -30.40393432 282.53041377 -37.5 286.6875 C-45.94268607 291.63168268 -54.39803535 296.55228593 -62.875 301.4375 C-63.95458984 302.05971436 -65.03417969 302.68192871 -66.14648438 303.32299805 C-68.3368252 304.58511517 -70.52725502 305.84707785 -72.71777344 307.10888672 C-78.14659942 310.23680148 -83.57319281 313.36858448 -89 316.5 C-91.16665583 317.75001879 -93.3333225 319.00001878 -95.5 320.25 C-96.5725 320.86875 -97.645 321.4875 -98.75 322.125 C-110.66666667 329 -122.58333333 335.875 -134.5 342.75 C-135.57330566 343.3692334 -136.64661133 343.9884668 -137.75244141 344.62646484 C-139.91090498 345.87169484 -142.06943323 347.11681272 -144.22802734 348.36181641 C-149.77074741 351.55886337 -155.31220008 354.75807595 -160.8515625 357.9609375 C-167.23007506 361.64811573 -173.61272573 365.32802074 -180 369 C-180.87624023 369.50418457 -181.75248047 370.00836914 -182.65527344 370.52783203 C-184.9339617 371.83620222 -187.21603933 373.13836155 -189.5 374.4375 C-190.14662598 374.8092334 -190.79325195 375.1809668 -191.45947266 375.56396484 C-195.76827711 378 -195.76827711 378 -198 378 C-198.22858025 371.27459206 -198.38595529 364.55018758 -198.49438477 357.82177734 C-198.53959016 355.53428726 -198.60096912 353.24705645 -198.67895508 350.96044922 C-198.78840739 347.66829538 -198.83922209 344.37958124 -198.87890625 341.0859375 C-198.9485836 339.55747696 -198.9485836 339.55747696 -199.01966858 337.99813843 C-199.02458857 331.04608308 -199.02458857 331.04608308 -196.12998962 328.09075928 C-193.81838861 326.52426781 -191.50220997 325.23522959 -189 324 C-188.03118896 323.42443359 -187.06237793 322.84886719 -186.06420898 322.25585938 C-184.79299194 321.55686523 -184.79299194 321.55686523 -183.49609375 320.84375 C-182.52099854 320.30371338 -181.54590332 319.76367676 -180.54125977 319.20727539 C-179.00489868 318.36217407 -179.00489868 318.36217407 -177.4375 317.5 C-168.92564082 312.77594016 -160.46123888 307.98498361 -152.0625 303.0625 C-143.76612489 298.20075198 -135.45639568 293.36403458 -127.125 288.5625 C-126.05572266 287.94576416 -124.98644531 287.32902832 -123.88476562 286.69360352 C-118.83698236 283.78325517 -113.78712729 280.87659389 -108.7322998 277.97850037 C-106.97519518 276.97078041 -105.21870476 275.9619982 -103.46240234 274.95288086 C-101.27254945 273.6950442 -99.08155559 272.4391908 -96.88916016 271.18579102 C-83.67958632 264.98859509 -83.67958632 264.98859509 -74.38407898 255.10971069 C-73.75804235 251.67094879 -73.83706726 248.21052311 -73.83203125 244.7265625 C-73.82870285 243.92519867 -73.82537445 243.12383484 -73.82194519 242.29818726 C-73.81689057 240.60537285 -73.81453641 238.91254851 -73.81469727 237.21972656 C-73.81251364 234.64110744 -73.7943505 232.06291833 -73.77539062 229.484375 C-73.77245575 227.83593896 -73.77047159 226.18750089 -73.76953125 224.5390625 C-73.75875298 223.39034164 -73.75875298 223.39034164 -73.74775696 222.21841431 C-73.76650501 217.7858349 -74.15746643 214.11878733 -76 210 C-79.16498696 207.77012283 -80.98812752 206.90990649 -84.86816406 207.25537109 C-88.15350825 208.0364983 -90.45964857 209.13675498 -93.359375 210.8515625 C-94.37902344 211.44775391 -95.39867187 212.04394531 -96.44921875 212.65820312 C-98.08310547 213.63176758 -98.08310547 213.63176758 -99.75 214.625 C-100.90697352 215.30502178 -102.06453713 215.98404047 -103.22265625 216.66210938 C-105.62665148 218.07067324 -108.02805773 219.48350641 -110.42773438 220.89941406 C-115.9283488 224.14016978 -121.46603409 227.31666323 -127 230.5 C-129.16684034 231.74969892 -131.3335065 232.99969989 -133.5 234.25 C-140 238 -140 238 -146.5 241.75 C-148.11116699 242.6795752 -148.11116699 242.6795752 -149.75488281 243.62792969 C-151.90514319 244.86838986 -154.05553224 246.10862703 -156.20605469 247.34863281 C-161.26897509 250.26830662 -166.33058332 253.19018475 -171.38757324 256.12011719 C-173.76812173 257.49918031 -176.14941306 258.87695785 -178.53076172 260.25463867 C-180.2048265 261.22384658 -181.87781912 262.19490565 -183.55078125 263.16601562 C-184.57042969 263.75576172 -185.59007812 264.34550781 -186.640625 264.953125 C-187.53297852 265.47036133 -188.42533203 265.98759766 -189.34472656 266.52050781 C-192.18839822 268.10497363 -195.08481429 269.55216984 -198 271 C-199.22363192 255.04951434 -199.13223099 239.092811 -199.10139394 223.10676527 C-199.0950609 219.25913646 -199.09454885 215.41150651 -199.09336853 211.56387329 C-199.09028412 204.30773367 -199.08211049 197.05160945 -199.07201904 189.79547656 C-199.06076713 181.52194179 -199.05532478 173.24840621 -199.05032361 164.97486567 C-199.03992481 147.98323493 -199.02238251 130.9916191 -199 114 C-198.22053009 113.55491592 -197.44106018 113.10983185 -196.63796997 112.65126038 C-193.67789401 110.96086917 -190.71794968 109.27024792 -187.75808716 107.57948303 C-186.48978658 106.85504944 -185.22143725 106.1307012 -183.95303345 105.40644836 C-172.02060474 98.59294696 -160.11507293 91.73356525 -148.21777344 84.85888672 C-142.81329355 81.73675395 -137.40652588 78.61858796 -132 75.5 C-129.8333225 74.25001878 -127.66665583 73.00001879 -125.5 71.75 C-103.83333333 59.25 -82.16666667 46.75 -60.5 34.25 C-59.4265332 33.63068604 -58.35306641 33.01137207 -57.24707031 32.37329102 C-55.09019097 31.12895002 -52.93329008 29.88464636 -50.77636719 28.64038086 C-45.2097733 25.42911098 -39.64359712 22.21711987 -34.078125 19.00390625 C-28.65039617 15.87040779 -23.22151268 12.73892087 -17.79150391 9.609375 C-16.03557631 8.59703682 -14.27999201 7.5841027 -12.52490234 6.5703125 C-10.49691304 5.39903887 -8.46750876 4.23026876 -6.4375 3.0625 C-4.85775391 2.15177734 -4.85775391 2.15177734 -3.24609375 1.22265625 C-1 0 -1 0 0 0 Z " fill="#000000" transform="translate(466,134)"/>
<path d="M0 0 C4.11886434 1.32876327 7.68915557 2.79879091 11.4296875 4.984375 C12.45964844 5.5825 13.48960938 6.180625 14.55078125 6.796875 C15.64777344 7.44140625 16.74476562 8.0859375 17.875 8.75 C19.03746744 9.42758622 20.20023297 10.10466127 21.36328125 10.78125 C24.3414967 12.51544739 27.31598625 14.25592563 30.28942871 15.99829102 C32.90197118 17.5281935 35.51741191 19.05311506 38.1328125 20.578125 C41.07695339 22.29486935 44.02077289 24.01214162 46.96313477 25.73193359 C54.22879204 29.97691658 61.51769655 34.1803512 68.8125 38.375 C77.7090132 43.49278664 86.55646839 48.68657582 95.375 53.9375 C105.76038225 60.11909609 116.21761037 66.15853218 126.72119141 72.13598633 C137.20356603 78.10279928 147.62512649 84.17021702 158.03369141 90.26464844 C161.09753067 92.05705745 164.16363269 93.84553629 167.23046875 95.6328125 C168.26977539 96.23851074 169.30908203 96.84420898 170.37988281 97.46826172 C172.31795996 98.59762031 174.25610294 99.72686594 176.19433594 100.85595703 C178.00903519 101.91404638 179.80833019 102.99904401 181.59039307 104.11122131 C184.22561734 105.57102461 186.44583303 106.55243615 189.24511719 107.53315735 C194.2631342 109.50816927 198.61670566 111.68893162 202 116 C205.0034527 124.31559207 204.16572756 133.66133415 203.92562604 142.37556911 C203.84664439 145.9075705 203.86550722 149.43913325 203.87327576 152.97181702 C203.87344367 159.6807006 203.78741348 166.38555864 203.66970628 173.09329754 C203.54157362 180.62228586 203.50723758 188.15069096 203.48225892 195.68062007 C203.43727158 208.75817407 203.30676857 221.83249515 203.12621403 234.90887356 C202.96045565 247.60596367 202.96165113 260.30207142 203 273 C199.2503395 271.53614425 195.83269359 269.86838835 192.3359375 267.8671875 C191.22798828 267.23425781 190.12003906 266.60132813 188.97851562 265.94921875 C187.77723232 265.25800612 186.57606356 264.56659438 185.375 263.875 C184.11917001 263.15489667 182.86331013 262.43484547 181.60742188 261.71484375 C172.06954746 256.23621895 162.60568799 250.63800029 153.15649414 245.0078125 C145.0893469 240.2109721 136.96945761 235.51660783 128.8125 230.875 C117.1382599 224.23153897 105.51837049 217.49998753 93.92675781 210.71337891 C88.9949194 207.82618822 84.06044184 204.94352583 79.125 202.0625 C78.13983398 201.48741699 77.15466797 200.91233398 76.13964844 200.31982422 C68.77277613 196.02387774 61.38929486 191.75724085 54 187.5 C38.6383637 178.6479016 23.27824009 169.78895679 8.0625 160.6875 C7.13981323 160.13666748 7.13981323 160.13666748 6.19848633 159.57470703 C2.12378712 157.12378712 2.12378712 157.12378712 1 156 C0.89099342 153.98805453 0.853092 151.97224673 0.84178162 149.9573822 C0.8319928 148.64339951 0.82220398 147.32941681 0.81211853 145.97561646 C0.80621355 144.5057987 0.80040316 143.03598057 0.79467773 141.56616211 C0.78510473 140.02908562 0.77509501 138.4920118 0.76467896 136.9549408 C0.73756111 132.76920008 0.71658893 128.58344801 0.69667697 124.39766765 C0.67485969 120.02807576 0.64745024 115.65851915 0.62062073 111.28895569 C0.57063607 103.0087551 0.52571874 94.728535 0.48259836 86.44829613 C0.43327522 77.02400336 0.37833889 67.59974598 0.32291877 58.1754874 C0.20901014 38.78369109 0.10219054 19.39186142 0 0 Z " fill="#000000" transform="translate(45,132)"/>
<path d="M0 0 C6.71617515 3.29535867 13.34345836 6.63486185 19.75 10.5 C21.21189446 11.37037161 22.67415619 12.24012653 24.13671875 13.109375 C24.91450684 13.57279297 25.69229492 14.03621094 26.49365234 14.51367188 C31.16778787 17.28555353 35.86660287 20.01520581 40.5625 22.75 C42.62894406 23.95436221 44.69534992 25.15878997 46.76171875 26.36328125 C47.79603027 26.9660791 48.8303418 27.56887695 49.89599609 28.18994141 C52.91731748 29.95178479 55.93739749 31.71573478 58.95703125 33.48046875 C69.28788352 39.51639565 79.63256982 45.52709011 90 51.5 C103.35009178 59.19128838 116.65733042 66.9548291 129.95898438 74.72949219 C132.93065503 76.46606835 135.90271155 78.20198148 138.875 79.9375 C139.86072998 80.51322754 140.84645996 81.08895508 141.86206055 81.68212891 C148.11662235 85.33083474 154.38227081 88.9590934 160.67089844 92.54882812 C162.84818407 93.80768326 165.01185761 95.09038136 167.16113281 96.39648438 C172.73980898 99.75615827 178.03263303 102.47084068 184.19921875 104.59375 C198.76797269 110.22180681 198.76797269 110.22180681 202 117 C205.83846154 132.22474743 203.50911336 149.55858784 202 165 C198.34581932 164.17349097 195.58682285 162.77266983 192.328125 160.89453125 C191.20132324 160.24798584 190.07452148 159.60144043 188.91357422 158.93530273 C187.69230012 158.22784455 186.47111086 157.5202399 185.25 156.8125 C183.98343912 156.08306135 182.7166721 155.35398052 181.44970703 154.62524414 C172.59163778 149.52407873 163.7581318 144.38019986 154.93579102 139.2175293 C147.70529227 134.98674676 140.45009583 130.8003941 133.1875 126.625 C124.29094423 121.50728883 115.44353036 116.31342343 106.625 111.0625 C96.23961775 104.88090391 85.78238963 98.84146782 75.27880859 92.86401367 C64.79643397 86.89720072 54.37487351 80.82978298 43.96630859 74.73535156 C40.90246933 72.94294255 37.83636731 71.15446371 34.76953125 69.3671875 C33.73022461 68.76148926 32.69091797 68.15579102 31.62011719 67.53173828 C29.68204004 66.40237969 27.74389706 65.27313406 25.80566406 64.14404297 C23.94342903 63.05823712 22.09577831 61.94710856 20.26196289 60.81396484 C17.66368651 59.36907348 15.28457932 58.30151427 12.53295898 57.23681641 C7.72201432 55.20364001 3.286346 53.18562347 0 49 C-2.76583056 41.02509378 -1.59196932 32.14435885 -1.0625 23.875 C-0.97714359 21.56017305 -0.89959117 19.24504437 -0.83007812 16.9296875 C-0.64351247 11.27983404 -0.3599342 5.64132164 0 0 Z " fill="#000000" transform="translate(46,347)"/>
<path d="M0 0 C0.99410889 0.57073242 1.98821777 1.14146484 3.01245117 1.72949219 C4.69806152 2.69459717 4.69806152 2.69459717 6.41772461 3.67919922 C7.63036939 4.37811698 8.84293246 5.07717653 10.05541992 5.77636719 C11.31605847 6.50034326 12.57680209 7.2241364 13.83764648 7.94775391 C24.6937241 14.18475311 35.51162443 20.48719301 46.31616211 26.81298828 C51.24800052 29.70017897 56.18247809 32.58284136 61.11791992 35.46386719 C62.10308594 36.0389502 63.08825195 36.6140332 64.10327148 37.20654297 C71.47014332 41.50248918 78.85358133 45.76920289 86.24291992 50.02636719 C99.5930117 57.71765557 112.90025034 65.48119629 126.2019043 73.25585938 C133.21190676 77.35234401 140.22563963 81.44236216 147.24291992 85.52636719 C148.37213867 86.18411133 149.50135742 86.84185547 150.66479492 87.51953125 C154.14674627 89.54683425 157.6321947 91.56805981 161.11791992 93.58886719 C162.18123535 94.20818115 163.24455078 94.82749512 164.34008789 95.46557617 C167.29537297 97.17540965 170.26560512 98.85525879 173.24291992 100.52636719 C174.15589844 101.05858887 175.06887695 101.59081055 176.00952148 102.13916016 C180.90730153 104.94840962 180.90730153 104.94840962 186.37573242 105.10449219 C187.79499023 104.32332031 187.79499023 104.32332031 189.24291992 103.52636719 C189.82267578 103.23052734 190.40243164 102.9346875 190.99975586 102.62988281 C193.06892991 101.56009145 195.09217483 100.42621912 197.11791992 99.27636719 C198.28097656 98.62317505 198.28097656 98.62317505 199.4675293 97.95678711 C207.99207998 93.14624187 216.43378567 88.19200247 224.87963867 83.24511719 C232.51013523 78.77871586 240.16618549 74.35675552 247.83544922 69.95727539 C252.89647339 67.05128282 257.93771997 64.12271427 262.93041992 61.10058594 C263.80142334 60.57875732 264.67242676 60.05692871 265.56982422 59.51928711 C267.17755013 58.55364091 268.77853439 57.57664107 270.37109375 56.58618164 C275.53416639 53.50340757 275.53416639 53.50340757 279.01635742 53.61621094 C282.33007396 54.97076524 285.18205324 56.66584038 288.24291992 58.52636719 C286.93496137 62.45024284 285.50552312 62.79986078 281.93432617 64.79199219 C280.80800781 65.4270166 279.68168945 66.06204102 278.52124023 66.71630859 C277.28264641 67.40301815 276.04403929 68.08970371 274.80541992 68.77636719 C273.53106903 69.4919554 272.25731309 70.20860409 270.98413086 70.92626953 C268.35817631 72.40592601 265.73018057 73.88185627 263.10083008 75.35546875 C257.37066108 78.57298818 251.68153541 81.86101682 245.99291992 85.15136719 C244.9264624 85.76713623 243.86000488 86.38290527 242.76123047 87.01733398 C236.53561726 90.61421831 230.31713517 94.2231803 224.10668945 97.84619141 C222.13247327 98.99730684 220.15691008 100.14611554 218.17993164 101.29248047 C212.95338545 104.32935145 207.76784282 107.41965348 202.61791992 110.58496094 C201.5301123 111.24423584 200.44230469 111.90351074 199.3215332 112.58276367 C197.23155795 113.85073296 195.15120584 115.13474243 193.08227539 116.43676758 C192.14270996 117.00258545 191.20314453 117.56840332 190.23510742 118.15136719 C189.0031665 118.91320312 189.0031665 118.91320312 187.74633789 119.69042969 C184.24823009 120.85851249 182.5705732 120.00157322 179.24291992 118.52636719 C177.37747101 117.53577725 175.54184003 116.48757725 173.73510742 115.39355469 C172.6804126 114.76046387 171.62571777 114.12737305 170.5390625 113.47509766 C169.98280182 113.13782654 169.42654114 112.80055542 168.85342407 112.45306396 C165.84662628 110.63097697 162.82765013 108.82927472 159.80932617 107.02636719 C158.87255287 106.46609329 158.87255287 106.46609329 157.91685486 105.89450073 C151.34705693 101.9742225 144.7069822 98.18069025 138.05541992 94.40136719 C126.38003379 87.75994401 114.76126454 81.02633957 103.16967773 74.23974609 C98.23783933 71.35255541 93.30336176 68.46989302 88.36791992 65.58886719 C87.38275391 65.01378418 86.39758789 64.43870117 85.38256836 63.84619141 C78.01569652 59.5502452 70.63225852 55.28353148 63.24291992 51.02636719 C51.88291564 44.48161301 40.55194309 37.88833263 29.23266602 31.2734375 C24.1329849 28.29341806 19.03192467 25.31576347 13.93041992 22.33886719 C12.94477051 21.76370361 11.95912109 21.18854004 10.94360352 20.59594727 C1.72250197 15.21786503 -7.51431564 9.86711551 -16.75708008 4.52636719 C-15.33306571 1.50433075 -14.35538813 -0.13183693 -11.44458008 -1.84863281 C-10.87094727 -2.20699219 -10.29731445 -2.56535156 -9.70629883 -2.93457031 C-6.15662808 -3.91624278 -3.11099875 -1.66279894 0 0 Z " fill="#000000" transform="translate(73.757080078125,326.4736328125)"/>
<path d="M0 0 C3.16491873 1.61612871 6.04677862 3.43519901 8.9375 5.5 C6.4291488 8.31784037 3.63827062 9.95723723 0.36328125 11.80078125 C-0.76674316 12.44088135 -1.89676758 13.08098145 -3.06103516 13.74047852 C-3.66167786 14.07782013 -4.26232056 14.41516174 -4.88116455 14.76272583 C-8.07348198 16.55593474 -11.25666646 18.36525434 -14.44140625 20.171875 C-15.08793152 20.53801407 -15.73445679 20.90415314 -16.40057373 21.28138733 C-22.35881705 24.65857199 -28.27816441 28.10048513 -34.1875 31.5625 C-43.76499041 37.16754059 -53.36781567 42.72711956 -62.98486328 48.26391602 C-64.50055908 49.13681274 -64.50055908 49.13681274 -66.046875 50.02734375 C-67.03107422 50.59308105 -68.01527344 51.15881836 -69.02929688 51.74169922 C-71.16779353 52.98135254 -73.29863976 54.23424978 -75.42382812 55.49658203 C-76.50599609 56.13837402 -77.58816406 56.78016602 -78.703125 57.44140625 C-80.17313965 58.32034546 -80.17313965 58.32034546 -81.67285156 59.21704102 C-84.0625 60.5 -84.0625 60.5 -86.0625 60.5 C-86.69059506 56.01925225 -86.91597632 51.9614131 -86.0625 47.5 C-83.18755077 44.13439277 -79.63837306 42.5199682 -75.6875 40.625 C-73.46814174 39.45036728 -71.24941237 38.27454571 -69.03125 37.09765625 C-67.87753906 36.50742676 -66.72382813 35.91719727 -65.53515625 35.30908203 C-59.97717629 32.41364956 -54.59454568 29.22811243 -49.1875 26.0625 C-47.02834498 24.81597246 -44.8681791 23.57119429 -42.70703125 22.328125 C-38.09911493 19.6738554 -33.49233766 17.01762791 -28.88671875 14.359375 C-28.29656982 14.01877548 -27.7064209 13.67817596 -27.09838867 13.32725525 C-24.26557244 11.69230093 -21.43281 10.05725345 -18.60009766 8.42211914 C-16.617047 7.27783385 -14.63269115 6.13580595 -12.64672852 4.99658203 C-11.04902459 4.0713175 -9.45911748 3.13225359 -7.88256836 2.17138672 C-3.37768013 -0.55145798 -3.37768013 -0.55145798 0 0 Z " fill="#000000" transform="translate(447.0625,218.5)"/>
</svg>
